<svg width="4154" height="1058" viewBox="0 0 4154 1058" fill="none" xmlns="http://www.w3.org/2000/svg">
<path d="M2218.25 998C2241.94 998 2256.27 984.266 2256.27 962.171C2256.27 946.447 2244.53 931.717 2230.4 929.528C2242.34 927.139 2253.68 915.793 2253.68 899.073C2253.68 878.173 2239.35 865.235 2217.06 865.235H2162.52V998H2218.25ZM2173.87 875.586H2215.67C2232.78 875.586 2241.74 886.732 2241.74 900.268C2241.74 914.002 2232.78 924.75 2215.67 924.75H2173.87V875.586ZM2173.87 935.101H2216.46C2234.97 935.101 2244.33 947.84 2244.33 961.375C2244.33 977.498 2233.98 987.65 2216.46 987.65H2173.87V935.101ZM2278.02 1035.62C2280.61 1036.42 2284.99 1037.01 2288.17 1037.01C2299.52 1037.01 2307.68 1031.24 2312.85 1019.1L2362.62 901.86H2350.87L2316.24 985.858L2281.2 901.86H2269.66L2310.27 998.796L2302.7 1015.91C2298.92 1025.07 2294.54 1027.66 2288.17 1027.66C2285.78 1027.66 2282 1027.06 2279.81 1026.07L2278.02 1035.62ZM2424.76 979.29C2434.92 991.63 2451.44 1000.39 2473.33 1000.39C2509.16 1000.39 2520.51 979.887 2520.51 962.769C2520.51 935.897 2497.02 929.129 2475.52 922.959C2457.41 918.182 2440.89 913.604 2440.89 897.879C2440.89 883.548 2454.22 873.396 2471.94 873.396C2486.87 873.396 2500.4 878.571 2509.96 890.116L2517.52 881.756C2507.17 870.012 2492.44 863.046 2472.54 863.046C2448.45 863.046 2428.94 876.78 2428.94 898.476C2428.94 922.959 2451.24 928.93 2472.14 934.703C2490.85 939.679 2508.56 944.854 2508.56 963.565C2508.56 974.91 2500.8 990.038 2473.53 990.038C2454.62 990.038 2440.69 980.683 2432.13 970.73L2424.76 979.29ZM2541.82 949.83C2541.82 979.489 2561.92 1000.39 2589.99 1000.39C2605.91 1000.39 2618.05 994.815 2627.61 984.863L2622.23 978.095C2614.07 986.853 2602.92 991.431 2590.78 991.431C2568.09 991.431 2554.16 974.114 2553.16 953.214H2633.58V950.428C2633.58 922.76 2617.45 899.471 2588.19 899.471C2561.52 899.471 2541.82 921.964 2541.82 949.83ZM2587.99 908.428C2612.08 908.428 2622.83 928.731 2623.03 945.053H2553.16C2553.96 928.333 2565.3 908.428 2587.99 908.428ZM2731.78 998V930.324C2731.78 908.827 2716.26 899.471 2696.75 899.471C2680.83 899.471 2669.68 904.846 2659.73 915.594L2665.5 922.76C2674.26 912.808 2683.61 908.628 2695.56 908.628C2709.89 908.628 2721.43 916.39 2721.43 930.722V950.229C2713.07 940.873 2702.13 936.494 2688.79 936.494C2672.07 936.494 2655.15 947.442 2655.15 968.342C2655.15 989.043 2672.27 1000.39 2688.79 1000.39C2702.13 1000.39 2712.87 996.01 2721.43 986.654V998H2731.78ZM2721.43 979.09C2714.67 987.849 2703.92 992.228 2692.37 992.228C2676.45 992.228 2666.1 982.076 2666.1 968.541C2666.1 954.807 2676.45 944.655 2692.37 944.655C2703.92 944.655 2714.67 949.233 2721.43 957.991V979.09ZM2774.48 998V927.935C2778.86 919.575 2791.99 910.817 2801.75 910.817C2803.74 910.817 2805.13 910.817 2806.92 911.215V899.869C2793.58 899.869 2782.64 907.632 2774.48 918.381V901.86H2764.13V998H2774.48ZM2821.73 949.83C2821.73 977.896 2840.24 1000.39 2868.5 1000.39C2885.22 1000.39 2894.78 993.82 2902.54 983.868L2895.37 977.498C2888.41 987.052 2879.65 991.033 2869.1 991.033C2846.61 991.033 2832.87 972.92 2832.87 949.83C2832.87 926.741 2846.61 908.827 2869.1 908.827C2879.65 908.827 2888.41 912.608 2895.37 922.163L2902.54 915.793C2894.78 906.04 2885.22 899.471 2868.5 899.471C2840.24 899.471 2821.73 921.765 2821.73 949.83ZM3000.9 998V930.324C3000.9 908.628 2990.15 899.471 2970.64 899.471C2956.71 899.471 2942.97 908.03 2936.01 916.39V865.235H2925.66V998H2936.01V925.348C2942.18 916.589 2954.92 908.827 2967.26 908.827C2981.19 908.827 2990.55 914.002 2990.55 932.513V998H3000.9ZM3128.89 998L3066.99 928.532L3123.52 865.235H3108.99L3044.9 937.888V865.235H3033.55V998H3044.9V951.622L3059.62 935.499L3114.36 998H3128.89ZM3154.96 885.538C3159.34 885.538 3162.92 881.955 3162.92 877.576C3162.92 873.197 3159.34 869.614 3154.96 869.614C3150.78 869.614 3146.99 873.197 3146.99 877.576C3146.99 881.955 3150.78 885.538 3154.96 885.538ZM3160.13 998V901.86H3149.78V998H3160.13ZM3267.59 998V930.722C3267.59 909.026 3256.84 899.471 3237.34 899.471C3223.4 899.471 3209.67 908.03 3202.7 916.39V901.86H3192.35V998H3202.7V925.348C3208.87 916.589 3221.61 908.827 3233.95 908.827C3247.88 908.827 3257.24 914.4 3257.24 932.911V998H3267.59ZM3300.04 1022.48C3311.39 1034.03 3321.74 1037.01 3337.86 1037.01C3361.35 1037.01 3381.25 1026.46 3381.25 997.005V901.86H3370.71V917.386C3362.94 906.438 3351 899.471 3337.27 899.471C3311.79 899.471 3294.27 919.376 3294.27 949.83C3294.27 980.683 3311.79 999.99 3337.27 999.99C3351.6 999.99 3363.94 991.83 3370.71 982.076V997.204C3370.71 1019.3 3355.38 1028.06 3337.86 1028.06C3323.53 1028.06 3314.37 1024.47 3306.01 1014.52L3300.04 1022.48ZM3370.71 973.119C3365.13 982.474 3352.39 990.635 3339.06 990.635C3317.76 990.635 3305.42 973.119 3305.42 949.83C3305.42 926.542 3317.76 908.827 3339.06 908.827C3352.39 908.827 3365.13 916.988 3370.71 926.343V973.119ZM3405 985.261C3414.56 995.81 3426.5 1000.39 3442.03 1000.39C3466.11 1000.39 3478.05 987.65 3478.05 972.124C3478.05 951.622 3459.54 947.044 3443.02 942.864C3429.69 939.48 3417.34 936.494 3417.34 925.547C3417.34 915.594 3426.5 908.229 3441.43 908.229C3454.17 908.229 3464.52 913.405 3470.09 920.969L3475.86 913.604C3468.9 905.841 3457.95 899.471 3441.43 899.471C3419.73 899.471 3407.19 911.414 3407.19 926.144C3407.19 944.854 3424.91 949.034 3441.03 953.015C3454.77 956.598 3467.9 960.181 3467.9 972.522C3467.9 983.669 3458.35 991.63 3442.23 991.63C3428.69 991.63 3417.34 985.261 3411.17 977.498L3405 985.261ZM3665.91 998L3611.57 865.235H3597.44L3543.1 998H3555.84L3569.17 965.356H3639.84L3653.17 998H3665.91ZM3636.25 955.006H3572.76L3604.4 876.382L3636.25 955.006ZM3717.38 911.016V901.86H3697.87V893.102C3697.87 879.766 3703.65 872.202 3714.59 872.202C3718.18 872.202 3720.96 872.998 3723.35 874.391L3726.54 866.23C3722.75 864.041 3718.37 863.245 3713.6 863.245C3697.67 863.245 3687.52 874.192 3687.52 893.102V901.86H3671.6V911.016H3687.52V998H3697.87V911.016H3717.38ZM3747.17 998V927.935C3751.55 919.575 3764.68 910.817 3774.44 910.817C3776.43 910.817 3777.82 910.817 3779.61 911.215V899.869C3766.28 899.869 3755.33 907.632 3747.17 918.381V901.86H3736.82V998H3747.17ZM3805.17 885.538C3809.54 885.538 3813.13 881.955 3813.13 877.576C3813.13 873.197 3809.54 869.614 3805.17 869.614C3800.99 869.614 3797.2 873.197 3797.2 877.576C3797.2 881.955 3800.99 885.538 3805.17 885.538ZM3810.34 998V901.86H3799.99V998H3810.34ZM3836.99 949.83C3836.99 977.896 3855.5 1000.39 3883.76 1000.39C3900.48 1000.39 3910.04 993.82 3917.8 983.868L3910.63 977.498C3903.67 987.052 3894.91 991.033 3884.36 991.033C3861.87 991.033 3848.13 972.92 3848.13 949.83C3848.13 926.741 3861.87 908.827 3884.36 908.827C3894.91 908.827 3903.67 912.608 3910.63 922.163L3917.8 915.793C3910.04 906.04 3900.48 899.471 3883.76 899.471C3855.5 899.471 3836.99 921.765 3836.99 949.83ZM4012.38 998V930.324C4012.38 908.827 3996.85 899.471 3977.34 899.471C3961.42 899.471 3950.27 904.846 3940.32 915.594L3946.09 922.76C3954.85 912.808 3964.21 908.628 3976.15 908.628C3990.48 908.628 4002.03 916.39 4002.03 930.722V950.229C3993.67 940.873 3982.72 936.494 3969.38 936.494C3952.66 936.494 3935.74 947.442 3935.74 968.342C3935.74 989.043 3952.86 1000.39 3969.38 1000.39C3982.72 1000.39 3993.47 996.01 4002.03 986.654V998H4012.38ZM4002.03 979.09C3995.26 987.849 3984.51 992.228 3972.96 992.228C3957.04 992.228 3946.69 982.076 3946.69 968.541C3946.69 954.807 3957.04 944.655 3972.96 944.655C3984.51 944.655 3995.26 949.233 4002.03 957.991V979.09Z" fill="white"/>
<path d="M533.553 716.335C492.252 712.493 449.51 707.21 405.327 700.487C362.105 692.803 321.284 683.678 282.865 673.113C280.944 672.152 276.622 670.711 269.898 668.79C263.175 666.869 259.813 664.948 259.813 663.027C259.813 660.146 263.175 658.225 269.898 657.265C276.622 656.304 280.944 655.824 282.865 655.824C302.075 653.903 326.567 652.942 356.342 652.942C386.118 651.982 410.61 652.942 429.82 655.824C448.069 658.705 469.2 661.106 493.213 663.027C518.185 664.948 543.158 665.429 568.131 664.468C593.104 663.508 617.116 661.106 640.168 657.265C664.18 653.423 684.831 647.66 702.12 639.976C709.803 637.094 718.448 631.331 728.053 622.687C737.658 614.042 744.861 605.398 749.664 596.753C718.928 616.924 684.831 629.41 647.371 634.213C609.912 639.015 570.532 639.976 529.231 637.094C488.89 634.213 447.589 629.89 405.327 624.128C364.026 618.365 323.205 614.523 282.865 612.602C256.932 611.641 230.038 612.602 202.184 615.483C175.29 618.365 148.876 624.127 122.943 632.772C97.9702 641.416 74.9184 652.942 53.7875 667.35C32.6567 681.757 15.3679 699.526 1.92098 720.657C0 725.459 -0.480246 726.42 0.480246 723.538C0.480246 719.696 0.480246 716.815 0.480246 714.894C8.16418 676.474 25.9333 647.66 53.7875 628.45C82.6023 608.279 113.818 592.912 147.435 582.346C159.922 530.48 174.329 479.093 190.658 428.187C206.986 377.281 221.874 327.816 235.32 279.791C249.728 231.767 261.254 185.183 269.898 140.04C279.503 94.8966 283.825 51.1942 282.865 8.93254C283.825 7.01158 283.825 5.09059 282.865 3.16958C282.865 1.24862 283.825 0.28814 285.746 0.28814C287.667 -0.672339 288.628 0.768409 288.628 4.61038C289.588 7.49182 290.069 9.41278 290.069 10.3733C302.555 52.6349 307.357 96.8175 304.476 142.921C301.594 188.064 294.391 234.168 282.865 281.232C272.299 328.296 258.853 376.321 242.524 425.306C227.156 473.33 212.749 521.835 199.302 570.82L236.761 566.498C241.564 544.407 246.366 521.835 251.169 498.783C256.932 475.732 262.694 455.561 268.457 438.272C270.378 432.509 273.26 420.983 277.102 403.695C281.904 385.445 286.707 363.834 291.509 338.861C296.312 313.889 301.114 286.995 305.917 258.18C311.68 229.365 316.002 201.511 318.883 174.617C322.725 147.724 324.646 123.231 324.646 101.14C325.607 79.0484 324.646 61.7596 321.765 49.2732C321.765 40.6288 322.245 36.3065 323.205 36.3065C325.126 36.3065 327.047 37.7473 328.968 40.6288C330.889 42.5497 332.33 44.4707 333.291 46.3918C343.856 62.7201 351.54 82.4102 356.342 105.462C362.105 128.514 365.467 153.006 366.428 178.94C368.349 203.912 367.868 228.885 364.987 253.858C363.066 278.831 359.704 300.442 354.902 318.691C343.376 359.032 330.889 400.333 317.443 442.595C303.996 484.856 289.588 526.157 274.22 566.498H305.917C309.759 550.17 314.561 533.841 320.324 517.513C326.087 501.185 331.37 484.856 336.172 468.528C348.659 423.385 361.145 377.281 373.631 330.217C386.118 282.192 393.321 230.806 395.242 176.058C395.242 171.256 395.723 168.854 396.683 168.854C398.604 168.854 399.565 169.815 399.565 171.736C400.525 173.657 401.486 175.578 402.446 177.499C411.09 198.63 414.932 225.523 413.972 258.18C413.972 290.837 411.09 325.415 405.327 361.913C399.565 397.451 391.881 433.95 382.276 471.409C373.631 507.908 365.467 541.045 357.783 570.82C393.321 573.702 427.419 577.544 460.076 582.346C493.693 587.149 527.31 591.471 560.927 595.313C573.414 543.446 587.341 492.54 602.709 442.595C619.037 391.689 633.925 342.703 647.371 295.639C661.779 247.615 673.305 201.031 681.949 155.888C691.554 110.745 695.876 67.5226 694.916 26.2214C694.916 21.419 695.876 19.0177 697.797 19.0177C699.718 19.0177 701.159 19.9782 702.12 21.8992C703.08 23.8202 703.56 25.2609 703.56 26.2214C716.047 69.4436 720.369 114.587 716.527 161.651C713.645 207.754 706.442 254.818 694.916 302.843C683.39 350.868 669.463 399.853 653.134 449.798C636.806 498.783 621.918 548.249 608.472 598.194C614.234 600.115 619.997 600.595 625.76 599.635C632.484 598.674 639.207 598.194 645.931 598.194C649.773 574.182 655.055 549.689 661.779 524.717C668.502 498.783 674.745 476.692 680.508 458.443C682.429 452.68 685.311 441.154 689.153 423.865C693.955 405.616 698.758 384.005 703.56 359.032C708.363 334.059 713.165 307.165 717.968 278.351C723.73 249.536 728.053 221.681 730.934 194.788C734.776 166.933 736.697 141.961 736.697 119.869C737.658 97.7781 736.697 80.4892 733.816 68.0028C731.895 61.2794 732.375 57.4374 735.256 56.4769C737.177 55.5164 739.098 56.4769 741.019 59.3584C742.94 61.2793 744.381 63.2003 745.342 65.1214C755.907 81.4497 764.071 101.14 769.834 124.192C775.597 147.243 778.959 171.256 779.919 196.228C781.84 221.201 781.36 246.174 778.479 271.147C776.558 296.12 773.196 317.731 768.393 335.98C756.868 379.202 743.421 422.904 728.053 467.087C712.685 511.27 696.837 554.972 680.508 598.194L716.527 592.431C721.329 576.103 726.612 559.294 732.375 542.005C738.138 523.756 743.421 505.987 748.223 488.698C761.67 442.595 774.156 396.011 785.682 348.947C798.169 300.922 805.372 250.016 807.293 196.228C807.293 191.426 807.293 189.025 807.293 189.025C807.293 188.064 807.774 187.584 808.734 187.584C810.655 187.584 812.576 190.465 814.497 196.228C826.023 222.162 830.345 255.779 827.464 297.08C824.582 338.381 818.819 381.603 810.175 426.746C801.53 470.929 791.445 514.151 779.919 556.413C768.393 597.714 759.749 630.851 753.986 655.824C743.421 701.927 729.974 749.472 713.645 798.457C697.317 847.442 682.91 890.184 670.423 926.682C667.542 938.208 663.7 943.971 658.897 943.971C656.976 943.011 656.016 940.129 656.016 935.327C656.976 930.524 657.457 925.722 657.457 920.919C659.378 879.618 663.22 838.797 668.982 798.457C675.706 757.156 684.35 714.894 694.916 671.672C670.903 688 643.53 700.006 612.794 707.69C582.058 715.374 555.644 718.256 533.553 716.335ZM245.406 902.19C247.327 856.086 251.649 810.943 258.372 766.761C242.044 764.84 225.716 762.919 209.387 760.998C194.019 758.116 178.651 755.235 163.284 752.353C159.442 804.22 160.882 855.606 167.606 906.512C174.329 956.458 188.737 1002.56 210.828 1044.82C212.749 1048.66 213.709 1050.59 213.709 1050.59C213.709 1055.39 210.828 1055.39 205.065 1050.59C166.645 1008.32 141.673 961.26 130.147 909.394C119.581 856.567 116.219 802.299 120.061 746.59L88.3652 740.827C83.5628 740.827 79.2406 739.867 75.3986 737.946C72.5171 736.025 71.0764 734.104 71.0764 732.183C71.0764 730.262 72.9974 728.821 76.8393 727.861C80.6813 726.9 84.043 725.94 86.9245 724.979C141.673 713.453 196.421 709.131 251.169 712.013C305.917 714.894 361.625 719.696 418.294 726.42C453.832 730.262 489.851 733.624 526.349 736.505C562.848 739.387 601.268 736.025 641.609 726.42C645.45 725.459 647.852 725.94 648.812 727.861C648.812 728.821 646.891 731.222 643.049 735.064C626.721 750.432 604.63 760.998 576.775 766.761C571.973 818.627 572.453 870.013 578.216 920.919C583.979 970.865 598.386 1014.09 621.438 1050.59C624.32 1053.47 624.32 1054.91 621.438 1054.91C620.478 1054.91 619.517 1054.43 618.557 1053.47C617.596 1052.51 616.155 1051.55 614.234 1050.59C595.985 1035.22 581.097 1017.45 569.572 997.279C559.006 976.148 550.842 953.576 545.079 929.564C539.316 905.552 535.474 880.579 533.553 854.646C532.593 827.752 532.593 800.858 533.553 773.964C513.383 775.885 492.732 776.846 471.601 776.846C450.471 776.846 429.82 776.365 409.65 775.405C389.479 774.444 370.27 773.484 352.02 772.523C333.771 770.603 317.923 769.162 304.476 768.201C296.792 794.135 288.628 819.107 279.983 843.12C271.339 866.171 264.135 887.302 258.372 906.512C256.451 911.315 254.53 916.117 252.609 920.919C250.688 924.761 248.767 925.722 246.846 923.801C244.925 923.801 243.965 921.4 243.965 916.597C244.925 911.795 245.406 906.992 245.406 902.19ZM638.727 967.023C643.53 985.272 647.852 1001.6 651.694 1016.01C655.536 1030.42 660.818 1041.94 667.542 1050.59C668.502 1051.55 669.463 1052.51 670.423 1053.47C671.384 1055.39 670.903 1056.83 668.982 1057.79C665.141 1057.79 659.858 1055.39 653.134 1050.59C642.569 1042.9 632.964 1034.26 624.32 1024.65C616.636 1015.05 610.393 995.838 605.59 967.023C603.669 955.497 602.709 941.57 602.709 925.242C602.709 908.913 603.189 893.545 604.149 879.138C605.11 863.77 606.551 850.804 608.472 840.238C611.353 829.673 614.235 824.87 617.116 825.831C619.037 825.831 620.478 828.232 621.438 833.034C622.399 837.837 623.359 843.12 624.32 848.883C625.28 854.646 625.76 860.409 625.76 866.171C626.721 871.934 627.201 876.257 627.201 879.138C629.122 895.466 630.563 910.834 631.523 925.242C633.444 939.649 635.846 953.576 638.727 967.023ZM226.676 948.294C232.439 982.871 241.564 1015.05 254.05 1044.82C255.971 1051.55 256.451 1054.91 255.491 1054.91C250.688 1054.91 245.406 1052.03 239.643 1046.26C227.156 1031.86 217.551 1018.89 210.828 1007.36C205.065 995.838 199.782 976.148 194.98 948.294C193.059 937.728 191.618 924.281 190.658 907.953C190.658 891.624 191.138 875.776 192.098 860.409C193.059 845.041 194.5 832.074 196.421 821.509C199.302 810.943 202.184 805.66 205.065 805.66C206.025 805.66 206.986 808.062 207.946 812.864C209.867 817.667 211.308 823.43 212.269 830.153C213.229 835.916 214.19 842.159 215.15 848.883C216.111 854.646 216.591 858.488 216.591 860.409C218.512 876.737 219.953 892.105 220.913 906.512C222.834 920.919 224.755 934.847 226.676 948.294ZM50.9061 716.335C38.4197 723.058 29.7752 728.821 24.9728 733.624C20.1703 738.426 14.4074 744.669 7.68393 752.353C3.84197 757.156 1.92098 758.596 1.92098 756.675C1.92098 754.754 1.92098 752.353 1.92098 749.472C5.76295 735.064 10.5654 723.538 16.3284 714.894C22.0913 706.25 31.6962 696.645 45.1431 686.079C51.8666 680.316 60.9912 675.514 72.5171 671.672C85.0035 667.83 97.0097 665.429 108.536 664.468C120.061 662.547 130.147 662.067 138.791 663.027C147.435 663.027 151.758 664.468 151.758 667.35C151.758 670.231 145.995 674.073 134.469 678.876C123.903 683.678 117.18 687.04 114.299 688.961C102.773 693.763 91.727 698.566 81.1616 703.368C70.5961 707.21 60.511 711.532 50.9061 716.335Z" fill="white"/>
<path d="M1062.72 575.142C1065.6 562.656 1067.04 548.249 1067.04 531.92C1068 515.592 1067.04 498.783 1064.16 481.495C1061.28 464.206 1056 447.877 1048.31 432.509C1041.59 416.181 1032.46 402.254 1020.94 390.728C1015.18 386.886 1011.81 384.965 1010.85 384.965C1007.01 384.965 1007.01 387.847 1010.85 393.609C1016.62 406.096 1018.54 425.786 1016.62 452.68C1015.66 478.613 1012.77 505.987 1007.97 534.802C1003.17 562.656 997.887 588.109 992.124 611.161C987.322 633.252 984.44 646.699 983.48 651.502C976.756 668.79 970.513 690.401 964.75 716.335C959.948 742.268 957.546 763.399 957.546 779.727C956.586 781.648 956.106 785.49 956.106 791.253C956.106 797.016 957.546 800.378 960.428 801.338C961.388 801.338 963.309 798.937 966.191 794.135C969.072 789.332 971.474 785.97 973.395 784.049C990.683 753.314 1007.01 719.696 1022.38 683.198C1038.71 646.699 1052.15 610.681 1062.72 575.142ZM1068.48 792.694C1072.33 775.405 1078.57 753.314 1087.21 726.42C1095.86 698.566 1103.06 670.231 1108.82 641.416C1114.59 611.641 1117.47 582.826 1117.47 554.972C1117.47 526.157 1111.71 502.625 1100.18 484.376C1096.34 480.534 1093.46 478.613 1091.54 478.613C1089.61 478.613 1089.13 480.534 1090.09 484.376C1090.09 520.875 1085.77 554.972 1077.13 586.668C1069.44 617.404 1060.8 647.66 1051.19 677.435C1034.87 726.42 1019.98 774.445 1006.53 821.509C993.085 867.612 987.322 915.157 989.243 964.142C989.243 967.023 989.243 970.385 989.243 974.227C990.203 977.108 992.124 978.549 995.006 978.549C996.927 978.549 998.367 977.588 999.328 975.667C1000.29 973.746 1001.73 970.865 1003.65 967.023C1013.25 943.971 1024.3 917.078 1036.79 886.342C1049.27 854.646 1059.84 823.43 1068.48 792.694ZM966.191 1050.59C947.942 1031.38 934.014 1010.25 924.409 987.193C914.805 963.181 908.081 939.169 904.239 915.156C900.397 890.184 899.437 865.211 901.358 840.238C903.279 815.265 907.121 791.733 912.884 769.642C921.528 735.064 932.574 700.487 946.021 665.909C959.467 631.331 970.993 597.234 980.598 563.617C990.203 529.039 995.486 495.422 996.446 462.765C998.367 429.148 991.644 396.491 976.276 364.795C973.395 359.992 971.474 357.591 970.513 357.591C969.553 357.591 969.072 358.552 969.072 360.473C969.072 361.433 969.553 362.394 970.513 363.354C973.395 392.169 971.474 421.944 964.75 452.68C958.027 483.415 949.382 515.112 938.817 547.768C928.251 579.465 916.245 612.602 902.798 647.179C890.312 680.797 879.747 715.374 871.102 750.912C864.379 776.846 859.576 803.259 856.695 830.153C854.774 857.047 856.695 883.941 862.458 910.834C868.221 936.768 878.786 961.74 894.154 985.753C909.522 1009.76 931.613 1031.86 960.428 1052.03C962.349 1053.95 964.75 1054.91 967.632 1054.91C970.513 1055.87 970.033 1054.43 966.191 1050.59ZM977.717 995.838C974.835 988.154 971.474 978.549 967.632 967.023C964.75 955.497 962.349 944.452 960.428 933.886C958.507 930.044 956.106 922.84 953.224 912.275C950.343 901.71 947.941 896.427 946.021 896.427C942.179 896.427 939.297 899.789 937.376 906.512C936.416 913.236 935.935 921.88 935.935 932.445C935.935 942.05 936.416 952.616 937.376 964.142C939.297 974.707 941.698 983.832 944.58 991.516C950.343 1010.73 957.066 1024.17 964.75 1031.86C973.395 1039.54 984.44 1045.78 997.887 1050.59C1003.65 1053.47 1007.97 1054.91 1010.85 1054.91C1011.81 1054.91 1011.81 1053.95 1010.85 1052.03C1010.85 1051.07 1010.37 1050.59 1009.41 1050.59C1002.69 1042.9 996.446 1034.74 990.683 1026.09C985.881 1017.45 981.559 1007.36 977.717 995.838ZM1090.09 250.977C1085.29 250.977 1077.61 250.496 1067.04 249.536C1057.44 247.615 1052.64 242.812 1052.64 235.128C1052.64 232.247 1056.96 228.885 1065.6 225.043C1074.25 220.241 1083.85 213.998 1094.42 206.314C1104.98 197.669 1114.59 187.104 1123.23 174.617C1131.88 161.17 1136.2 144.362 1136.2 124.192C1136.2 99.2188 1131.4 80.4892 1121.79 68.0028C1119.87 65.1213 1117.47 62.2398 1114.59 59.3584C1111.71 55.5164 1110.74 53.1152 1111.71 52.1547C1113.63 52.1547 1115.55 53.1152 1117.47 55.0361C1120.35 55.9966 1122.27 56.9571 1123.23 57.9177C1142.44 68.4831 1156.85 82.4102 1166.45 99.699C1177.02 116.027 1182.3 131.876 1182.3 147.243C1182.3 177.979 1175.1 202.952 1160.69 222.162C1146.28 241.372 1122.75 250.977 1090.09 250.977ZM1036.79 193.347C1025.26 198.149 1019.5 195.268 1019.5 184.703C1019.5 177.019 1022.38 169.815 1028.14 163.091C1033.91 155.408 1039.19 147.243 1043.99 138.599C1049.75 129.955 1053.6 120.35 1055.52 109.784C1057.44 98.2583 1054.56 84.3312 1046.87 68.0028C1044.95 63.2003 1041.59 57.9176 1036.79 52.1547C1031.98 46.3917 1030.54 43.03 1032.46 42.0695C1034.39 41.109 1038.23 42.0695 1043.99 44.951C1050.71 46.872 1055.04 48.3127 1056.96 49.2732C1073.29 56.9571 1085.29 68.4831 1092.98 83.851C1101.62 99.2188 1105.94 112.666 1105.94 124.192C1105.94 142.441 1098.26 157.809 1082.89 170.295C1068.48 181.821 1053.12 189.505 1036.79 193.347ZM995.006 115.547C995.006 110.745 996.446 105.462 999.328 99.699C1002.21 92.9756 1007.01 89.6138 1013.74 89.6138C1018.54 89.6138 1022.38 92.9756 1025.26 99.699C1028.14 105.462 1029.58 110.745 1029.58 115.547C1029.58 119.389 1028.14 124.672 1025.26 131.395C1022.38 137.158 1018.54 140.04 1013.74 140.04C1007.01 140.04 1002.21 137.158 999.328 131.395C996.446 125.632 995.006 120.35 995.006 115.547Z" fill="white"/>
<path d="M1559.82 596.753C1543.49 630.371 1524.28 664.468 1502.19 699.046C1480.1 732.663 1457.05 762.919 1433.03 789.812C1432.07 791.733 1429.67 795.095 1425.83 799.898C1421.99 803.739 1418.63 805.18 1415.75 804.22C1413.82 802.299 1413.34 798.937 1414.31 794.135C1415.27 789.332 1416.23 785.49 1417.19 782.609C1421.99 767.241 1429.19 747.07 1438.8 722.098C1448.4 697.125 1458.49 676.955 1469.05 661.587C1471.93 656.784 1477.7 643.337 1486.34 621.246C1495.95 599.155 1505.07 574.662 1513.72 547.768C1522.36 519.914 1529.08 493.02 1533.89 467.087C1538.69 441.154 1538.21 421.944 1532.45 409.458C1532.45 409.458 1532.45 408.017 1532.45 405.135V403.695C1536.29 403.695 1539.17 405.616 1541.09 409.458C1551.66 421.944 1559.34 436.351 1564.14 452.68C1569.9 469.008 1573.27 485.817 1574.23 503.106C1575.19 520.394 1574.23 537.683 1571.35 554.972C1569.42 571.3 1565.58 585.228 1559.82 596.753ZM1607.36 507.428C1617.93 527.598 1620.81 552.091 1616.01 580.905C1612.17 608.76 1604.48 637.574 1592.96 667.35C1582.39 697.125 1569.9 725.459 1555.5 752.353C1542.05 778.286 1531 799.417 1522.36 815.746C1507.95 843.6 1490.18 871.934 1469.05 900.749C1448.88 928.603 1430.15 953.576 1412.86 975.667C1408.06 982.391 1403.74 985.753 1399.9 985.753C1397.98 983.832 1397.02 981.43 1397.02 978.549C1397.98 975.667 1398.94 972.786 1399.9 969.905C1415.27 919.959 1434.48 873.855 1457.53 831.594C1480.58 788.372 1504.59 743.709 1529.56 697.605C1545.89 668.79 1560.3 639.495 1572.79 609.72C1586.23 578.984 1595.36 545.367 1600.16 508.869C1600.16 504.066 1600.64 501.665 1601.6 501.665C1604.48 501.665 1606.4 503.586 1607.36 507.428ZM1300.49 554.972C1300.49 590.51 1297.61 628.93 1291.84 670.231C1287.04 711.532 1281.76 747.07 1275.99 776.846C1275.99 778.767 1275.03 782.128 1273.11 786.931C1272.15 791.733 1269.75 794.615 1265.91 795.575C1263.99 795.575 1262.07 793.174 1260.15 788.372C1259.19 783.569 1258.23 780.207 1257.26 778.286C1255.34 770.603 1253.42 761.478 1251.5 750.912C1250.54 739.387 1249.58 727.861 1248.62 716.335C1247.66 704.809 1246.7 693.283 1245.74 681.757C1245.74 670.231 1246.22 660.146 1247.18 651.502C1248.14 645.739 1247.66 631.331 1245.74 608.279C1243.82 585.228 1240.94 560.255 1237.09 533.361C1233.25 506.467 1227.97 481.014 1221.25 457.002C1214.52 432.029 1206.36 414.74 1196.75 405.135C1194.83 403.214 1193.39 401.293 1192.43 399.372C1192.43 396.491 1192.91 395.05 1193.87 395.05C1195.79 395.05 1197.71 395.53 1199.64 396.491C1202.52 397.451 1204.92 398.412 1206.84 399.372C1220.29 405.135 1232.77 414.26 1244.3 426.746C1255.82 439.233 1265.43 453.16 1273.11 468.528C1281.76 482.935 1288.48 497.823 1293.28 513.191C1298.09 528.559 1300.49 542.486 1300.49 554.972ZM1381.17 1050.59C1381.17 1054.43 1380.21 1056.35 1378.29 1056.35C1377.33 1056.35 1375.41 1055.39 1372.52 1053.47C1370.6 1052.51 1368.68 1051.55 1366.76 1050.59C1359.08 1044.82 1353.31 1036.66 1349.47 1026.09C1346.59 1015.53 1346.11 999.68 1348.03 978.549C1348.03 969.905 1348.99 960.3 1350.91 949.734C1352.83 939.169 1355.23 929.564 1358.12 920.919C1361 911.315 1363.88 904.111 1366.76 899.308C1369.64 893.545 1372.52 891.144 1375.41 892.105C1380.21 894.026 1382.13 900.269 1381.17 910.834C1381.17 920.439 1381.17 927.643 1381.17 932.445C1380.21 957.418 1379.73 979.99 1379.73 1000.16C1379.73 1020.33 1380.21 1037.14 1381.17 1050.59ZM1299.05 977.108C1294.24 971.345 1289.92 963.661 1286.08 954.056C1282.24 944.452 1278.88 935.327 1275.99 926.682C1273.11 917.078 1271.19 908.913 1270.23 902.19C1270.23 895.466 1271.67 891.624 1274.55 890.664C1279.36 889.704 1283.68 892.585 1287.52 899.308C1292.32 905.071 1296.16 910.834 1299.05 916.597C1298.09 896.427 1299.05 876.257 1301.93 856.086C1305.77 834.955 1308.65 815.746 1310.57 798.457C1313.45 773.484 1315.85 751.393 1317.78 732.183C1319.7 712.013 1321.14 688 1322.1 660.146C1324.02 630.371 1324.02 597.714 1322.1 562.176C1320.18 526.638 1312.49 492.06 1299.05 458.443C1298.09 455.561 1298.57 454.12 1300.49 454.12C1302.41 454.12 1303.85 454.601 1304.81 455.561C1305.77 456.522 1307.21 457.482 1309.13 458.443C1321.62 468.048 1331.7 481.494 1339.39 498.783C1348.03 515.112 1354.27 533.841 1358.12 554.972C1362.92 575.142 1365.8 596.754 1366.76 619.805C1368.68 641.897 1369.64 663.027 1369.64 683.198C1384.05 657.264 1398.94 631.811 1414.31 606.839C1429.67 580.905 1443.12 555.452 1454.65 530.48C1466.17 504.546 1475.3 479.574 1482.02 455.561C1488.74 430.588 1491.62 406.096 1490.66 382.084C1490.66 378.242 1491.14 375.84 1492.1 374.88C1493.07 374.88 1494.99 377.281 1497.87 382.084C1511.31 413.78 1515.64 445.956 1510.83 478.613C1506.03 510.309 1495.95 542.486 1480.58 575.142C1466.17 606.839 1448.88 639.015 1428.71 671.672C1408.54 703.368 1390.77 735.064 1375.41 766.761C1356.2 807.101 1342.27 851.284 1333.62 899.308C1325.94 947.333 1328.82 997.759 1342.27 1050.59V1052.03C1341.31 1052.99 1340.83 1053.47 1340.83 1053.47C1338.91 1053.47 1337.47 1052.99 1336.51 1052.03C1335.54 1052.03 1335.06 1051.55 1335.06 1050.59C1332.18 1046.74 1328.82 1042.9 1324.98 1039.06C1321.14 1035.22 1315.85 1031.38 1309.13 1027.53C1281.28 1013.13 1258.23 996.318 1239.98 977.108C1221.73 957.898 1207.32 937.248 1196.75 915.156C1187.15 893.065 1179.95 870.013 1175.14 846.001C1171.3 821.989 1169.38 797.977 1169.38 773.964C1168.42 739.387 1168.9 704.809 1170.82 670.231C1173.7 634.693 1175.14 600.595 1175.14 567.939C1176.1 535.282 1174.66 504.066 1170.82 474.291C1166.98 443.555 1158.81 415.701 1146.33 390.728C1146.33 388.807 1146.33 387.847 1146.33 387.847C1148.25 385.926 1150.17 385.445 1152.09 386.406C1154.01 387.366 1155.45 388.327 1156.41 389.287C1181.39 412.339 1198.19 439.233 1206.84 469.969C1215.48 500.704 1220.29 533.361 1221.25 567.939C1222.21 602.516 1220.77 638.055 1216.92 674.553C1213.08 711.052 1211.64 747.07 1212.6 782.609C1213.56 803.739 1215.96 825.351 1219.81 847.442C1223.65 869.533 1229.89 891.144 1238.54 912.275C1247.18 932.445 1258.23 952.135 1271.67 971.345C1286.08 990.555 1302.89 1007.84 1322.1 1023.21C1318.26 1013.61 1315.37 1006.88 1313.45 1003.04C1311.53 998.239 1306.73 989.595 1299.05 977.108Z" fill="white"/>
<path d="M2048.14 462.765C2055.82 472.37 2061.59 484.376 2065.43 498.783C2070.23 513.191 2072.15 529.039 2071.19 546.328C2070.23 562.656 2066.39 579.945 2059.67 598.194C2052.94 616.444 2042.38 634.213 2027.97 651.502C2000.12 684.158 1969.38 709.611 1935.76 727.861C1903.11 745.149 1873.33 753.794 1846.44 753.794C1830.11 753.794 1830.11 750.912 1846.44 745.149C1855.08 742.268 1865.17 737.946 1876.69 732.183C1889.18 725.459 1902.15 717.775 1915.59 709.131C1929.04 699.526 1942.49 688.48 1955.93 675.994C1970.34 663.508 1983.31 649.1 1994.83 632.772C2014.04 605.878 2025.09 579.945 2027.97 554.972C2031.81 529.039 2027.01 509.349 2013.56 495.902C2002.04 484.376 1988.59 478.133 1973.22 477.172C1957.85 475.251 1934.8 483.415 1904.07 501.665C1876.21 517.993 1851.24 538.163 1829.15 562.176C1807.06 586.188 1786.41 611.641 1767.2 638.535C1756.63 651.982 1749.43 658.705 1745.58 658.705C1742.7 658.705 1744.14 650.061 1749.91 632.772C1761.43 599.155 1777.28 567.939 1797.45 539.124C1818.58 510.309 1843.55 485.817 1872.37 465.646C1893.5 451.239 1912.71 441.154 1930 435.391C1948.25 429.628 1964.58 427.227 1978.98 428.187C1994.35 429.148 2007.8 432.99 2019.32 439.713C2030.85 445.476 2040.46 453.16 2048.14 462.765ZM2125.94 563.617C2122.1 586.668 2115.85 606.358 2107.21 622.687C2099.53 638.055 2090.4 651.502 2079.84 663.027C2070.23 673.593 2060.15 682.237 2049.58 688.961C2039.98 695.684 2031.33 701.927 2023.65 707.69C2019.81 710.572 2016.92 711.052 2015 709.131C2013.08 707.21 2014.52 703.848 2019.32 699.046C2036.61 684.639 2053.9 665.429 2071.19 641.416C2089.44 616.444 2099.05 589.07 2100.01 559.294C2100.01 508.388 2087.52 469.488 2062.55 442.595C2037.57 415.701 2006.36 404.175 1968.9 408.017C1931.44 410.898 1892.54 425.306 1852.2 451.239C1826.27 467.567 1803.21 486.777 1783.04 508.869C1763.83 529.999 1747.03 553.051 1732.62 578.024C1718.21 602.036 1706.2 627.009 1696.6 652.942C1687.96 678.876 1681.71 704.809 1677.87 730.742C1674.03 755.715 1670.19 782.609 1666.34 811.423C1663.46 840.238 1663.46 868.573 1666.34 896.427C1670.19 924.281 1679.31 951.175 1693.72 977.108C1708.13 1002.08 1730.7 1023.69 1761.43 1041.94C1766.24 1044.82 1771.04 1046.74 1775.84 1047.7C1781.6 1048.66 1784.48 1049.63 1784.48 1050.59C1784.48 1052.51 1782.08 1053.47 1777.28 1053.47C1772.48 1054.43 1767.2 1053.95 1761.43 1052.03C1737.42 1047.22 1716.77 1037.62 1699.48 1023.21C1683.15 1007.84 1669.71 990.555 1659.14 971.345C1648.58 952.135 1640.41 931.965 1634.65 910.834C1628.89 889.703 1625.52 870.494 1624.56 853.205C1618.8 777.326 1629.37 702.408 1656.26 628.45C1662.02 613.082 1669.23 595.793 1677.87 576.583C1687.48 557.373 1699 538.164 1712.45 518.954C1725.89 498.783 1741.74 479.574 1759.99 461.324C1778.24 442.114 1798.89 425.306 1821.94 410.898C1844.04 397.451 1867.09 387.366 1891.1 380.643C1915.11 373.919 1939.12 371.038 1963.14 371.998C1987.15 371.998 2009.72 376.321 2030.85 384.965C2051.98 392.649 2070.71 404.655 2087.04 420.984C2101.45 436.351 2112.49 456.041 2120.18 480.054C2128.82 504.066 2130.74 531.92 2125.94 563.617ZM1994.83 511.75C2006.36 525.197 2007.8 546.328 1999.15 575.142C1990.51 602.997 1970.34 631.331 1938.64 660.146C1921.35 676.474 1904.55 689.921 1888.22 700.487C1871.89 710.092 1851.24 718.736 1826.27 726.42C1815.7 762.919 1808.98 798.937 1806.1 834.475C1803.21 870.013 1804.17 898.828 1808.98 920.919C1809.94 929.564 1812.82 938.208 1817.62 946.853C1823.38 954.537 1831.07 960.78 1840.67 965.582C1851.24 969.424 1864.69 970.865 1881.01 969.905C1897.34 968.944 1917.51 963.661 1941.53 954.056C1948.25 951.175 1952.09 950.695 1953.05 952.616C1954.97 953.576 1952.09 956.458 1944.41 961.26C1927.12 974.707 1908.87 984.312 1889.66 990.075C1870.45 994.877 1852.2 996.318 1834.91 994.397C1818.58 992.476 1804.17 986.713 1791.69 977.108C1780.16 967.503 1772.48 954.537 1768.64 938.208C1760.95 904.591 1757.59 869.533 1758.55 833.034C1759.51 796.536 1764.79 760.517 1774.4 724.979C1784.96 689.441 1799.37 656.304 1817.62 625.568C1836.83 593.872 1860.36 566.978 1888.22 544.887C1940.08 503.586 1975.62 492.54 1994.83 511.75ZM1980.43 971.345C1973.7 980.95 1965.06 990.555 1954.49 1000.16C1944.89 1008.8 1933.36 1016.97 1919.91 1024.65C1907.43 1031.38 1893.98 1037.14 1879.57 1041.94C1866.13 1046.74 1852.2 1049.15 1837.79 1049.15C1812.82 1049.15 1789.29 1043.86 1767.2 1033.3C1746.07 1021.77 1729.74 999.2 1718.21 965.582C1716.29 961.74 1715.33 958.379 1715.33 955.497C1715.33 951.655 1716.29 949.734 1718.21 949.734C1722.05 947.813 1725.89 949.254 1729.74 954.056C1733.58 957.898 1737.42 962.221 1741.26 967.023C1751.83 979.509 1765.27 990.555 1781.6 1000.16C1798.89 1009.76 1815.22 1014.57 1830.59 1014.57C1859.4 1014.57 1884.38 1010.25 1905.51 1001.6C1926.64 992.956 1946.81 981.43 1966.02 967.023C1970.82 964.142 1976.1 961.26 1981.87 958.379C1988.59 955.497 1988.11 959.819 1980.43 971.345ZM1960.25 550.65C1956.41 542.966 1942.49 549.209 1918.47 569.38C1896.38 586.668 1878.61 606.839 1865.17 629.89C1852.68 651.982 1841.63 676.474 1832.03 703.368C1850.28 694.724 1867.09 685.119 1882.45 674.553C1897.82 663.027 1912.23 651.982 1925.68 641.416C1940.08 628.93 1950.65 612.602 1957.37 592.431C1964.1 572.261 1965.06 558.334 1960.25 550.65Z" fill="white"/>
</svg>
