<svg width="4137" height="1059" viewBox="0 0 4137 1059" fill="none" xmlns="http://www.w3.org/2000/svg">
<path d="M2201.25 998C2224.94 998 2239.27 984.266 2239.27 962.171C2239.27 946.447 2227.53 931.717 2213.4 929.528C2225.34 927.139 2236.68 915.793 2236.68 899.073C2236.68 878.173 2222.35 865.235 2200.06 865.235H2145.52V998H2201.25ZM2156.87 875.586H2198.67C2215.78 875.586 2224.74 886.732 2224.74 900.267C2224.74 914.002 2215.78 924.75 2198.67 924.75H2156.87V875.586ZM2156.87 935.101H2199.46C2217.97 935.101 2227.33 947.84 2227.33 961.375C2227.33 977.498 2216.98 987.649 2199.46 987.649H2156.87V935.101ZM2261.02 1035.62C2263.61 1036.42 2267.99 1037.01 2271.17 1037.01C2282.52 1037.01 2290.68 1031.24 2295.85 1019.1L2345.62 901.86H2333.87L2299.24 985.858L2264.2 901.86H2252.66L2293.27 998.796L2285.7 1015.91C2281.92 1025.07 2277.54 1027.66 2271.17 1027.66C2268.78 1027.66 2265 1027.06 2262.81 1026.07L2261.02 1035.62ZM2407.76 979.289C2417.92 991.63 2434.44 1000.39 2456.33 1000.39C2492.16 1000.39 2503.51 979.887 2503.51 962.769C2503.51 935.897 2480.02 929.129 2458.52 922.959C2440.41 918.182 2423.89 913.604 2423.89 897.879C2423.89 883.547 2437.22 873.396 2454.94 873.396C2469.87 873.396 2483.4 878.571 2492.96 890.116L2500.52 881.756C2490.17 870.012 2475.44 863.046 2455.54 863.046C2431.45 863.046 2411.94 876.78 2411.94 898.476C2411.94 922.959 2434.24 928.93 2455.14 934.703C2473.85 939.679 2491.56 944.854 2491.56 963.565C2491.56 974.91 2483.8 990.038 2456.53 990.038C2437.62 990.038 2423.69 980.683 2415.13 970.73L2407.76 979.289ZM2524.82 949.83C2524.82 979.489 2544.92 1000.39 2572.99 1000.39C2588.91 1000.39 2601.05 994.815 2610.61 984.863L2605.23 978.095C2597.07 986.853 2585.92 991.431 2573.78 991.431C2551.09 991.431 2537.16 974.114 2536.16 953.214H2616.58V950.428C2616.58 922.76 2600.45 899.471 2571.19 899.471C2544.52 899.471 2524.82 921.964 2524.82 949.83ZM2570.99 908.428C2595.08 908.428 2605.83 928.731 2606.03 945.053H2536.16C2536.96 928.333 2548.3 908.428 2570.99 908.428ZM2714.78 998V930.324C2714.78 908.827 2699.26 899.471 2679.75 899.471C2663.83 899.471 2652.68 904.846 2642.73 915.594L2648.5 922.76C2657.26 912.808 2666.61 908.628 2678.56 908.628C2692.89 908.628 2704.43 916.39 2704.43 930.722V950.228C2696.07 940.873 2685.13 936.494 2671.79 936.494C2655.07 936.494 2638.15 947.442 2638.15 968.342C2638.15 989.043 2655.27 1000.39 2671.79 1000.39C2685.13 1000.39 2695.87 996.009 2704.43 986.654V998H2714.78ZM2704.43 979.09C2697.67 987.849 2686.92 992.228 2675.37 992.228C2659.45 992.228 2649.1 982.076 2649.1 968.541C2649.1 954.807 2659.45 944.655 2675.37 944.655C2686.92 944.655 2697.67 949.233 2704.43 957.991V979.09ZM2757.48 998V927.935C2761.86 919.575 2774.99 910.817 2784.75 910.817C2786.74 910.817 2788.13 910.817 2789.92 911.215V899.869C2776.58 899.869 2765.64 907.632 2757.48 918.381V901.86H2747.13V998H2757.48ZM2804.73 949.83C2804.73 977.896 2823.24 1000.39 2851.5 1000.39C2868.22 1000.39 2877.78 993.82 2885.54 983.868L2878.37 977.498C2871.41 987.052 2862.65 991.033 2852.1 991.033C2829.61 991.033 2815.87 972.92 2815.87 949.83C2815.87 926.741 2829.61 908.827 2852.1 908.827C2862.65 908.827 2871.41 912.608 2878.37 922.163L2885.54 915.793C2877.78 906.04 2868.22 899.471 2851.5 899.471C2823.24 899.471 2804.73 921.765 2804.73 949.83ZM2983.9 998V930.324C2983.9 908.628 2973.15 899.471 2953.64 899.471C2939.71 899.471 2925.97 908.03 2919.01 916.39V865.235H2908.66V998H2919.01V925.348C2925.18 916.589 2937.92 908.827 2950.26 908.827C2964.19 908.827 2973.55 914.002 2973.55 932.513V998H2983.9ZM3111.89 998L3049.99 928.532L3106.52 865.235H3091.99L3027.9 937.888V865.235H3016.55V998H3027.9V951.622L3042.62 935.499L3097.36 998H3111.89ZM3137.96 885.538C3142.34 885.538 3145.92 881.955 3145.92 877.576C3145.92 873.197 3142.34 869.614 3137.96 869.614C3133.78 869.614 3129.99 873.197 3129.99 877.576C3129.99 881.955 3133.78 885.538 3137.96 885.538ZM3143.13 998V901.86H3132.78V998H3143.13ZM3250.59 998V930.722C3250.59 909.026 3239.84 899.471 3220.34 899.471C3206.4 899.471 3192.67 908.03 3185.7 916.39V901.86H3175.35V998H3185.7V925.348C3191.87 916.589 3204.61 908.827 3216.95 908.827C3230.88 908.827 3240.24 914.4 3240.24 932.911V998H3250.59ZM3283.04 1022.48C3294.39 1034.03 3304.74 1037.01 3320.86 1037.01C3344.35 1037.01 3364.25 1026.46 3364.25 997.005V901.86H3353.71V917.386C3345.94 906.438 3334 899.471 3320.27 899.471C3294.79 899.471 3277.27 919.376 3277.27 949.83C3277.27 980.683 3294.79 999.99 3320.27 999.99C3334.6 999.99 3346.94 991.829 3353.71 982.076V997.204C3353.71 1019.3 3338.38 1028.06 3320.86 1028.06C3306.53 1028.06 3297.37 1024.47 3289.01 1014.52L3283.04 1022.48ZM3353.71 973.119C3348.13 982.474 3335.39 990.635 3322.06 990.635C3300.76 990.635 3288.42 973.119 3288.42 949.83C3288.42 926.542 3300.76 908.827 3322.06 908.827C3335.39 908.827 3348.13 916.988 3353.71 926.343V973.119ZM3388 985.261C3397.56 995.81 3409.5 1000.39 3425.03 1000.39C3449.11 1000.39 3461.05 987.649 3461.05 972.124C3461.05 951.622 3442.54 947.044 3426.02 942.864C3412.69 939.48 3400.34 936.494 3400.34 925.547C3400.34 915.594 3409.5 908.229 3424.43 908.229C3437.17 908.229 3447.52 913.405 3453.09 920.968L3458.86 913.604C3451.9 905.841 3440.95 899.471 3424.43 899.471C3402.73 899.471 3390.19 911.414 3390.19 926.144C3390.19 944.854 3407.91 949.034 3424.03 953.015C3437.77 956.598 3450.9 960.181 3450.9 972.522C3450.9 983.669 3441.35 991.63 3425.23 991.63C3411.69 991.63 3400.34 985.261 3394.17 977.498L3388 985.261ZM3648.91 998L3594.57 865.235H3580.44L3526.1 998H3538.84L3552.17 965.356H3622.84L3636.17 998H3648.91ZM3619.25 955.006H3555.76L3587.4 876.382L3619.25 955.006ZM3700.38 911.016V901.86H3680.87V893.102C3680.87 879.766 3686.65 872.202 3697.59 872.202C3701.18 872.202 3703.96 872.998 3706.35 874.391L3709.54 866.23C3705.75 864.041 3701.37 863.245 3696.6 863.245C3680.67 863.245 3670.52 874.192 3670.52 893.102V901.86H3654.6V911.016H3670.52V998H3680.87V911.016H3700.38ZM3730.17 998V927.935C3734.55 919.575 3747.68 910.817 3757.44 910.817C3759.43 910.817 3760.82 910.817 3762.61 911.215V899.869C3749.28 899.869 3738.33 907.632 3730.17 918.381V901.86H3719.82V998H3730.17ZM3788.17 885.538C3792.54 885.538 3796.13 881.955 3796.13 877.576C3796.13 873.197 3792.54 869.614 3788.17 869.614C3783.99 869.614 3780.2 873.197 3780.2 877.576C3780.2 881.955 3783.99 885.538 3788.17 885.538ZM3793.34 998V901.86H3782.99V998H3793.34ZM3819.99 949.83C3819.99 977.896 3838.5 1000.39 3866.76 1000.39C3883.48 1000.39 3893.04 993.82 3900.8 983.868L3893.63 977.498C3886.67 987.052 3877.91 991.033 3867.36 991.033C3844.87 991.033 3831.13 972.92 3831.13 949.83C3831.13 926.741 3844.87 908.827 3867.36 908.827C3877.91 908.827 3886.67 912.608 3893.63 922.163L3900.8 915.793C3893.04 906.04 3883.48 899.471 3866.76 899.471C3838.5 899.471 3819.99 921.765 3819.99 949.83ZM3995.38 998V930.324C3995.38 908.827 3979.85 899.471 3960.34 899.471C3944.42 899.471 3933.27 904.846 3923.32 915.594L3929.09 922.76C3937.85 912.808 3947.21 908.628 3959.15 908.628C3973.48 908.628 3985.03 916.39 3985.03 930.722V950.228C3976.67 940.873 3965.72 936.494 3952.38 936.494C3935.66 936.494 3918.74 947.442 3918.74 968.342C3918.74 989.043 3935.86 1000.39 3952.38 1000.39C3965.72 1000.39 3976.47 996.009 3985.03 986.654V998H3995.38ZM3985.03 979.09C3978.26 987.849 3967.51 992.228 3955.96 992.228C3940.04 992.228 3929.69 982.076 3929.69 968.541C3929.69 954.807 3940.04 944.655 3955.96 944.655C3967.51 944.655 3978.26 949.233 3985.03 957.991V979.09Z" fill="black"/>
<path d="M533.553 716.749C492.252 712.907 449.51 707.624 405.327 700.901C362.105 693.217 321.284 684.092 282.865 673.527C280.944 672.566 276.622 671.126 269.898 669.205C263.175 667.284 259.813 665.363 259.813 663.442C259.813 660.56 263.175 658.639 269.898 657.679C276.622 656.718 280.944 656.238 282.865 656.238C302.075 654.317 326.567 653.356 356.342 653.356C386.118 652.396 410.61 653.356 429.82 656.238C448.069 659.119 469.2 661.521 493.213 663.442C518.185 665.363 543.158 665.843 568.131 664.882C593.104 663.922 617.116 661.521 640.168 657.679C664.18 653.837 684.831 648.074 702.12 640.39C709.803 637.508 718.448 631.745 728.053 623.101C737.658 614.456 744.861 605.812 749.664 597.168C718.928 617.338 684.831 629.824 647.371 634.627C609.912 639.429 570.532 640.39 529.231 637.508C488.89 634.627 447.589 630.305 405.327 624.542C364.026 618.779 323.205 614.937 282.865 613.016C256.932 612.055 230.038 613.016 202.184 615.897C175.29 618.779 148.876 624.542 122.943 633.186C97.9702 641.83 74.9184 653.356 53.7875 667.764C32.6567 682.171 15.3679 699.94 1.92098 721.071C0 725.874 -0.480246 726.834 0.480246 723.953C0.480246 720.111 0.480246 717.229 0.480246 715.308C8.16418 676.888 25.9333 648.074 53.7875 628.864C82.6023 608.694 113.818 593.326 147.435 582.76C159.922 530.894 174.329 479.507 190.658 428.601C206.986 377.695 221.874 328.23 235.32 280.205C249.728 232.181 261.254 185.597 269.898 140.454C279.503 95.3107 283.825 51.6084 282.865 9.34669C283.825 7.42574 283.825 5.50475 282.865 3.58373C282.865 1.66277 283.825 0.702294 285.746 0.702294C287.667 -0.258185 288.628 1.18256 288.628 5.02454C289.588 7.90598 290.069 9.82693 290.069 10.7874C302.555 53.0491 307.357 97.2317 304.476 143.335C301.594 188.478 294.391 234.582 282.865 281.646C272.299 328.71 258.853 376.735 242.524 425.72C227.156 473.745 212.749 522.249 199.302 571.234L236.761 566.912C241.564 544.821 246.366 522.249 251.169 499.198C256.932 476.146 262.694 455.975 268.457 438.687C270.378 432.924 273.26 421.398 277.102 404.109C281.904 385.859 286.707 364.248 291.509 339.276C296.312 314.303 301.114 287.409 305.917 258.594C311.68 229.78 316.002 201.925 318.883 175.032C322.725 148.138 324.646 123.645 324.646 101.554C325.607 79.4626 324.646 62.1737 321.765 49.6873C321.765 41.0429 322.245 36.7207 323.205 36.7207C325.126 36.7207 327.047 38.1614 328.968 41.0429C330.889 42.9639 332.33 44.8849 333.291 46.8059C343.856 63.1343 351.54 82.8244 356.342 105.876C362.105 128.928 365.467 153.42 366.428 179.354C368.349 204.327 367.868 229.299 364.987 254.272C363.066 279.245 359.704 300.856 354.902 319.105C343.376 359.446 330.889 400.747 317.443 443.009C303.996 485.27 289.588 526.571 274.22 566.912H305.917C309.759 550.584 314.561 534.255 320.324 517.927C326.087 501.599 331.37 485.27 336.172 468.942C348.659 423.799 361.145 377.695 373.631 330.631C386.118 282.607 393.321 231.22 395.242 176.472C395.242 171.67 395.723 169.269 396.683 169.269C398.604 169.269 399.565 170.229 399.565 172.15C400.525 174.071 401.486 175.992 402.446 177.913C411.09 199.044 414.932 225.938 413.972 258.594C413.972 291.251 411.09 325.829 405.327 362.327C399.565 397.866 391.881 434.364 382.276 471.824C373.631 508.322 365.467 541.459 357.783 571.234C393.321 574.116 427.419 577.958 460.076 582.76C493.693 587.563 527.31 591.885 560.927 595.727C573.414 543.86 587.341 492.954 602.709 443.009C619.037 392.103 633.925 343.118 647.371 296.053C661.779 248.029 673.305 201.445 681.949 156.302C691.554 111.159 695.876 67.9367 694.916 26.6356C694.916 21.8331 695.876 19.4319 697.797 19.4319C699.718 19.4319 701.159 20.3924 702.12 22.3133C703.08 24.2344 703.56 25.6751 703.56 26.6356C716.047 69.8577 720.369 115.001 716.527 162.065C713.645 208.169 706.442 255.233 694.916 303.257C683.39 351.282 669.463 400.267 653.134 450.212C636.806 499.198 621.918 548.663 608.472 598.608C614.234 600.529 619.997 601.01 625.76 600.049C632.484 599.089 639.207 598.608 645.931 598.608C649.773 574.596 655.055 550.104 661.779 525.131C668.502 499.197 674.745 477.106 680.508 458.857C682.429 453.094 685.311 441.568 689.153 424.279C693.955 406.03 698.758 384.419 703.56 359.446C708.363 334.473 713.165 307.579 717.968 278.765C723.73 249.95 728.053 222.096 730.934 195.202C734.776 167.348 736.697 142.375 736.697 120.284C737.658 98.1922 736.697 80.9033 733.816 68.4169C731.895 61.6935 732.375 57.8516 735.256 56.891C737.177 55.9305 739.098 56.891 741.019 59.7725C742.94 61.6935 744.381 63.6145 745.342 65.5355C755.907 81.8638 764.071 101.554 769.834 124.606C775.597 147.658 778.959 171.67 779.919 196.643C781.84 221.615 781.36 246.588 778.479 271.561C776.558 296.534 773.196 318.145 768.393 336.394C756.868 379.616 743.421 423.319 728.053 467.501C712.685 511.684 696.837 555.386 680.508 598.608L716.527 592.845C721.329 576.517 726.612 559.709 732.375 542.42C738.138 524.17 743.421 506.401 748.223 489.112C761.67 443.009 774.156 396.425 785.682 349.361C798.169 301.336 805.372 250.43 807.293 196.643C807.293 191.84 807.293 189.439 807.293 189.439C807.293 188.478 807.774 187.998 808.734 187.998C810.655 187.998 812.576 190.88 814.497 196.643C826.023 222.576 830.345 256.193 827.464 297.494C824.582 338.795 818.819 382.018 810.175 427.161C801.53 471.343 791.445 514.565 779.919 556.827C768.393 598.128 759.749 631.265 753.986 656.238C743.421 702.341 729.974 749.886 713.645 798.871C697.317 847.856 682.91 890.598 670.423 927.097C667.542 938.622 663.7 944.385 658.897 944.385C656.976 943.425 656.016 940.543 656.016 935.741C656.976 930.939 657.457 926.136 657.457 921.334C659.378 880.033 663.22 839.212 668.982 798.871C675.706 757.57 684.35 715.308 694.916 672.086C670.903 688.414 643.53 700.421 612.794 708.104C582.058 715.788 555.644 718.67 533.553 716.749ZM245.406 902.604C247.327 856.5 251.649 811.357 258.372 767.175C242.044 765.254 225.716 763.333 209.387 761.412C194.019 758.53 178.651 755.649 163.284 752.767C159.442 804.634 160.882 856.02 167.606 906.926C174.329 956.872 188.737 1002.98 210.828 1045.24C212.749 1049.08 213.709 1051 213.709 1051C213.709 1055.8 210.828 1055.8 205.065 1051C166.645 1008.74 141.673 961.674 130.147 909.808C119.581 856.981 116.219 802.713 120.061 747.004L88.3652 741.241C83.5628 741.241 79.2406 740.281 75.3986 738.36C72.5171 736.439 71.0764 734.518 71.0764 732.597C71.0764 730.676 72.9974 729.235 76.8393 728.275C80.6813 727.314 84.043 726.354 86.9245 725.393C141.673 713.867 196.421 709.545 251.169 712.427C305.917 715.308 361.625 720.111 418.294 726.834C453.832 730.676 489.851 734.038 526.349 736.919C562.848 739.801 601.268 736.439 641.609 726.834C645.45 725.874 647.852 726.354 648.812 728.275C648.812 729.235 646.891 731.637 643.049 735.478C626.721 750.846 604.63 761.412 576.775 767.175C571.973 819.041 572.453 870.428 578.216 921.334C583.979 971.279 598.386 1014.5 621.438 1051C624.32 1053.88 624.32 1055.32 621.438 1055.32C620.478 1055.32 619.517 1054.84 618.557 1053.88C617.596 1052.92 616.155 1051.96 614.234 1051C595.985 1035.63 581.097 1017.86 569.572 997.693C559.006 976.562 550.842 953.99 545.079 929.978C539.316 905.966 535.474 880.993 533.553 855.06C532.593 828.166 532.593 801.272 533.553 774.378C513.383 776.299 492.732 777.26 471.601 777.26C450.471 777.26 429.82 776.78 409.65 775.819C389.479 774.859 370.27 773.898 352.02 772.938C333.771 771.017 317.923 769.576 304.476 768.615C296.792 794.549 288.628 819.521 279.983 843.534C271.339 866.586 264.135 887.716 258.372 906.926C256.451 911.729 254.53 916.531 252.609 921.334C250.688 925.176 248.767 926.136 246.846 924.215C244.925 924.215 243.965 921.814 243.965 917.011C244.925 912.209 245.406 907.406 245.406 902.604ZM638.727 967.437C643.53 985.687 647.852 1002.01 651.694 1016.42C655.536 1030.83 660.818 1042.36 667.542 1051C668.502 1051.96 669.463 1052.92 670.423 1053.88C671.384 1055.8 670.903 1057.24 668.982 1058.2C665.141 1058.2 659.858 1055.8 653.134 1051C642.569 1043.32 632.964 1034.67 624.32 1025.07C616.636 1015.46 610.393 996.252 605.59 967.437C603.669 955.911 602.709 941.984 602.709 925.656C602.709 909.327 603.189 893.96 604.149 879.552C605.11 864.184 606.551 851.218 608.472 840.652C611.353 830.087 614.235 825.284 617.116 826.245C619.037 826.245 620.478 828.646 621.438 833.449C622.399 838.251 623.359 843.534 624.32 849.297C625.28 855.06 625.76 860.823 625.76 866.586C626.721 872.349 627.201 876.671 627.201 879.552C629.122 895.881 630.563 911.248 631.523 925.656C633.444 940.063 635.846 953.99 638.727 967.437ZM226.676 948.708C232.439 983.285 241.564 1015.46 254.05 1045.24C255.971 1051.96 256.451 1055.32 255.491 1055.32C250.688 1055.32 245.406 1052.44 239.643 1046.68C227.156 1032.27 217.551 1019.3 210.828 1007.78C205.065 996.252 199.782 976.562 194.98 948.708C193.059 938.142 191.618 924.695 190.658 908.367C190.658 892.039 191.138 876.191 192.098 860.823C193.059 845.455 194.5 832.488 196.421 821.923C199.302 811.357 202.184 806.075 205.065 806.075C206.025 806.075 206.986 808.476 207.946 813.278C209.867 818.081 211.308 823.844 212.269 830.567C213.229 836.33 214.19 842.573 215.15 849.297C216.111 855.06 216.591 858.902 216.591 860.823C218.512 877.151 219.953 892.519 220.913 906.926C222.834 921.334 224.755 935.261 226.676 948.708ZM50.9061 716.749C38.4197 723.472 29.7752 729.235 24.9728 734.038C20.1703 738.84 14.4074 745.083 7.68393 752.767C3.84197 757.57 1.92098 759.01 1.92098 757.09C1.92098 755.169 1.92098 752.767 1.92098 749.886C5.76295 735.478 10.5654 723.953 16.3284 715.308C22.0913 706.664 31.6962 697.059 45.1431 686.493C51.8666 680.73 60.9912 675.928 72.5171 672.086C85.0035 668.244 97.0097 665.843 108.536 664.882C120.061 662.961 130.147 662.481 138.791 663.442C147.435 663.442 151.758 664.882 151.758 667.764C151.758 670.645 145.995 674.487 134.469 679.29C123.903 684.092 117.18 687.454 114.299 689.375C102.773 694.177 91.727 698.98 81.1616 703.782C70.5961 707.624 60.511 711.946 50.9061 716.749Z" fill="black"/>
<path d="M1062.72 575.557C1065.6 563.07 1067.04 548.663 1067.04 532.335C1068 516.006 1067.04 499.198 1064.16 481.909C1061.28 464.62 1056 448.291 1048.31 432.924C1041.59 416.595 1032.46 402.668 1020.94 391.142C1015.18 387.3 1011.81 385.379 1010.85 385.379C1007.01 385.379 1007.01 388.261 1010.85 394.024C1016.62 406.51 1018.54 426.2 1016.62 453.094C1015.66 479.027 1012.77 506.401 1007.97 535.216C1003.17 563.07 997.887 588.523 992.124 611.575C987.322 633.666 984.44 647.113 983.48 651.916C976.756 669.205 970.513 690.816 964.75 716.749C959.948 742.682 957.546 763.813 957.546 780.141C956.586 782.062 956.106 785.904 956.106 791.667C956.106 797.43 957.546 800.792 960.428 801.752C961.388 801.752 963.309 799.351 966.191 794.549C969.072 789.746 971.474 786.385 973.395 784.464C990.683 753.728 1007.01 720.111 1022.38 683.612C1038.71 647.113 1052.15 611.095 1062.72 575.557ZM1068.48 793.108C1072.33 775.819 1078.57 753.728 1087.21 726.834C1095.86 698.98 1103.06 670.645 1108.82 641.831C1114.59 612.055 1117.47 583.241 1117.47 555.386C1117.47 526.572 1111.71 503.039 1100.18 484.79C1096.34 480.948 1093.46 479.027 1091.54 479.027C1089.61 479.027 1089.13 480.948 1090.09 484.79C1090.09 521.289 1085.77 555.386 1077.13 587.082C1069.44 617.818 1060.8 648.074 1051.19 677.849C1034.87 726.834 1019.98 774.859 1006.53 821.923C993.085 868.026 987.322 915.571 989.243 964.556C989.243 967.437 989.243 970.799 989.243 974.641C990.203 977.522 992.124 978.963 995.006 978.963C996.927 978.963 998.367 978.003 999.328 976.082C1000.29 974.161 1001.73 971.279 1003.65 967.437C1013.25 944.385 1024.3 917.492 1036.79 886.756C1049.27 855.06 1059.84 823.844 1068.48 793.108ZM966.191 1051C947.942 1031.79 934.014 1010.66 924.409 987.608C914.805 963.595 908.081 939.583 904.239 915.571C900.397 890.598 899.437 865.625 901.358 840.652C903.279 815.68 907.121 792.147 912.884 770.056C921.528 735.478 932.574 700.901 946.021 666.323C959.467 631.745 970.993 597.648 980.598 564.031C990.203 529.453 995.486 495.836 996.446 463.179C998.367 429.562 991.644 396.905 976.276 365.209C973.395 360.406 971.474 358.005 970.513 358.005C969.553 358.005 969.072 358.966 969.072 360.887C969.072 361.847 969.553 362.808 970.513 363.768C973.395 392.583 971.474 422.358 964.75 453.094C958.027 483.83 949.382 515.526 938.817 548.183C928.251 579.879 916.245 613.016 902.798 647.593C890.312 681.211 879.747 715.788 871.102 751.327C864.379 777.26 859.576 803.673 856.695 830.567C854.774 857.461 856.695 884.355 862.458 911.248C868.221 937.182 878.786 962.155 894.154 986.167C909.522 1010.18 931.613 1032.27 960.428 1052.44C962.349 1054.36 964.75 1055.32 967.632 1055.32C970.513 1056.28 970.033 1054.84 966.191 1051ZM977.717 996.252C974.835 988.568 971.474 978.963 967.632 967.437C964.75 955.911 962.349 944.866 960.428 934.3C958.507 930.458 956.106 923.255 953.224 912.689C950.343 902.124 947.941 896.841 946.021 896.841C942.179 896.841 939.297 900.203 937.376 906.926C936.416 913.65 935.935 922.294 935.935 932.86C935.935 942.464 936.416 953.03 937.376 964.556C939.297 975.121 941.698 984.246 944.58 991.93C950.343 1011.14 957.066 1024.59 964.75 1032.27C973.395 1039.95 984.44 1046.2 997.887 1051C1003.65 1053.88 1007.97 1055.32 1010.85 1055.32C1011.81 1055.32 1011.81 1054.36 1010.85 1052.44C1010.85 1051.48 1010.37 1051 1009.41 1051C1002.69 1043.32 996.446 1035.15 990.683 1026.51C985.881 1017.86 981.559 1007.78 977.717 996.252ZM1090.09 251.391C1085.29 251.391 1077.61 250.91 1067.04 249.95C1057.44 248.029 1052.64 243.226 1052.64 235.542C1052.64 232.661 1056.96 229.299 1065.6 225.457C1074.25 220.655 1083.85 214.412 1094.42 206.728C1104.98 198.083 1114.59 187.518 1123.23 175.032C1131.88 161.585 1136.2 144.776 1136.2 124.606C1136.2 99.633 1131.4 80.9033 1121.79 68.4169C1119.87 65.5355 1117.47 62.654 1114.59 59.7725C1111.71 55.9306 1110.74 53.5293 1111.71 52.5689C1113.63 52.5689 1115.55 53.5293 1117.47 55.4503C1120.35 56.4108 1122.27 57.3713 1123.23 58.3318C1142.44 68.8972 1156.85 82.8243 1166.45 100.113C1177.02 116.442 1182.3 132.29 1182.3 147.658C1182.3 178.393 1175.1 203.366 1160.69 222.576C1146.28 241.786 1122.75 251.391 1090.09 251.391ZM1036.79 193.761C1025.26 198.564 1019.5 195.682 1019.5 185.117C1019.5 177.433 1022.38 170.229 1028.14 163.506C1033.91 155.822 1039.19 147.658 1043.99 139.013C1049.75 130.369 1053.6 120.764 1055.52 110.198C1057.44 98.6724 1054.56 84.7453 1046.87 68.4169C1044.95 63.6145 1041.59 58.3318 1036.79 52.5689C1031.98 46.8059 1030.54 43.4441 1032.46 42.4837C1034.39 41.5232 1038.23 42.4837 1043.99 45.3652C1050.71 47.2861 1055.04 48.7269 1056.96 49.6873C1073.29 57.3713 1085.29 68.8972 1092.98 84.2651C1101.62 99.633 1105.94 113.08 1105.94 124.606C1105.94 142.855 1098.26 158.223 1082.89 170.709C1068.48 182.235 1053.12 189.919 1036.79 193.761ZM995.006 115.961C995.006 111.159 996.446 105.876 999.328 100.113C1002.21 93.3897 1007.01 90.028 1013.74 90.028C1018.54 90.028 1022.38 93.3897 1025.26 100.113C1028.14 105.876 1029.58 111.159 1029.58 115.961C1029.58 119.803 1028.14 125.086 1025.26 131.809C1022.38 137.572 1018.54 140.454 1013.74 140.454C1007.01 140.454 1002.21 137.572 999.328 131.809C996.446 126.046 995.006 120.764 995.006 115.961Z" fill="black"/>
<path d="M1559.82 597.168C1543.49 630.785 1524.28 664.882 1502.19 699.46C1480.1 733.077 1457.05 763.333 1433.03 790.227C1432.07 792.148 1429.67 795.509 1425.83 800.312C1421.99 804.154 1418.63 805.594 1415.75 804.634C1413.82 802.713 1413.34 799.351 1414.31 794.549C1415.27 789.746 1416.23 785.904 1417.19 783.023C1421.99 767.655 1429.19 747.485 1438.8 722.512C1448.4 697.539 1458.49 677.369 1469.05 662.001C1471.93 657.198 1477.7 643.751 1486.34 621.66C1495.95 599.569 1505.07 575.076 1513.72 548.183C1522.36 520.328 1529.08 493.435 1533.89 467.501C1538.69 441.568 1538.21 422.358 1532.45 409.872C1532.45 409.872 1532.45 408.431 1532.45 405.55V404.109C1536.29 404.109 1539.17 406.03 1541.09 409.872C1551.66 422.358 1559.34 436.766 1564.14 453.094C1569.9 469.422 1573.27 486.231 1574.23 503.52C1575.19 520.809 1574.23 538.097 1571.35 555.386C1569.42 571.715 1565.58 585.642 1559.82 597.168ZM1607.36 507.842C1617.93 528.012 1620.81 552.505 1616.01 581.32C1612.17 609.174 1604.48 637.989 1592.96 667.764C1582.39 697.539 1569.9 725.874 1555.5 752.767C1542.05 778.701 1531 799.831 1522.36 816.16C1507.95 844.014 1490.18 872.349 1469.05 901.163C1448.88 929.018 1430.15 953.99 1412.86 976.082C1408.06 982.805 1403.74 986.167 1399.9 986.167C1397.98 984.246 1397.02 981.845 1397.02 978.963C1397.98 976.082 1398.94 973.2 1399.9 970.319C1415.27 920.373 1434.48 874.27 1457.53 832.008C1480.58 788.786 1504.59 744.123 1529.56 698.019C1545.89 669.205 1560.3 639.91 1572.79 610.134C1586.23 579.399 1595.36 545.781 1600.16 509.283C1600.16 504.48 1600.64 502.079 1601.6 502.079C1604.48 502.079 1606.4 504 1607.36 507.842ZM1300.49 555.386C1300.49 590.924 1297.61 629.344 1291.84 670.645C1287.04 711.946 1281.76 747.485 1275.99 777.26C1275.99 779.181 1275.03 782.543 1273.11 787.345C1272.15 792.147 1269.75 795.029 1265.91 795.989C1263.99 795.989 1262.07 793.588 1260.15 788.786C1259.19 783.983 1258.23 780.622 1257.26 778.701C1255.34 771.017 1253.42 761.892 1251.5 751.327C1250.54 739.801 1249.58 728.275 1248.62 716.749C1247.66 705.223 1246.7 693.697 1245.74 682.171C1245.74 670.645 1246.22 660.56 1247.18 651.916C1248.14 646.153 1247.66 631.745 1245.74 608.694C1243.82 585.642 1240.94 560.669 1237.09 533.775C1233.25 506.881 1227.97 481.428 1221.25 457.416C1214.52 432.443 1206.36 415.154 1196.75 405.55C1194.83 403.629 1193.39 401.708 1192.43 399.787C1192.43 396.905 1192.91 395.464 1193.87 395.464C1195.79 395.464 1197.71 395.945 1199.64 396.905C1202.52 397.866 1204.92 398.826 1206.84 399.787C1220.29 405.55 1232.77 414.674 1244.3 427.161C1255.82 439.647 1265.43 453.574 1273.11 468.942C1281.76 483.349 1288.48 498.237 1293.28 513.605C1298.09 528.973 1300.49 542.9 1300.49 555.386ZM1381.17 1051C1381.17 1054.84 1380.21 1056.76 1378.29 1056.76C1377.33 1056.76 1375.41 1055.8 1372.52 1053.88C1370.6 1052.92 1368.68 1051.96 1366.76 1051C1359.08 1045.24 1353.31 1037.07 1349.47 1026.51C1346.59 1015.94 1346.11 1000.09 1348.03 978.963C1348.03 970.319 1348.99 960.714 1350.91 950.148C1352.83 939.583 1355.23 929.978 1358.12 921.334C1361 911.729 1363.88 904.525 1366.76 899.723C1369.64 893.96 1372.52 891.558 1375.41 892.519C1380.21 894.44 1382.13 900.683 1381.17 911.248C1381.17 920.853 1381.17 928.057 1381.17 932.86C1380.21 957.832 1379.73 980.404 1379.73 1000.57C1379.73 1020.74 1380.21 1037.55 1381.17 1051ZM1299.05 977.522C1294.24 971.759 1289.92 964.076 1286.08 954.471C1282.24 944.866 1278.88 935.741 1275.99 927.097C1273.11 917.492 1271.19 909.327 1270.23 902.604C1270.23 895.881 1271.67 892.039 1274.55 891.078C1279.36 890.118 1283.68 892.999 1287.52 899.723C1292.32 905.486 1296.16 911.248 1299.05 917.011C1298.09 896.841 1299.05 876.671 1301.93 856.5C1305.77 835.37 1308.65 816.16 1310.57 798.871C1313.45 773.898 1315.85 751.807 1317.78 732.597C1319.7 712.427 1321.14 688.414 1322.1 660.56C1324.02 630.785 1324.02 598.128 1322.1 562.59C1320.18 527.052 1312.49 492.474 1299.05 458.857C1298.09 455.975 1298.57 454.535 1300.49 454.535C1302.41 454.535 1303.85 455.015 1304.81 455.975C1305.77 456.936 1307.21 457.896 1309.13 458.857C1321.62 468.462 1331.7 481.909 1339.39 499.198C1348.03 515.526 1354.27 534.255 1358.12 555.386C1362.92 575.557 1365.8 597.168 1366.76 620.219C1368.68 642.311 1369.64 663.442 1369.64 683.612C1384.05 657.679 1398.94 632.226 1414.31 607.253C1429.67 581.32 1443.12 555.867 1454.65 530.894C1466.17 504.96 1475.3 479.988 1482.02 455.975C1488.74 431.003 1491.62 406.51 1490.66 382.498C1490.66 378.656 1491.14 376.255 1492.1 375.294C1493.07 375.294 1494.99 377.695 1497.87 382.498C1511.31 414.194 1515.64 446.37 1510.83 479.027C1506.03 510.723 1495.95 542.9 1480.58 575.557C1466.17 607.253 1448.88 639.429 1428.71 672.086C1408.54 703.782 1390.77 735.478 1375.41 767.175C1356.2 807.515 1342.27 851.698 1333.62 899.723C1325.94 947.747 1328.82 998.173 1342.27 1051V1052.44C1341.31 1053.4 1340.83 1053.88 1340.83 1053.88C1338.91 1053.88 1337.47 1053.4 1336.51 1052.44C1335.54 1052.44 1335.06 1051.96 1335.06 1051C1332.18 1047.16 1328.82 1043.32 1324.98 1039.47C1321.14 1035.63 1315.85 1031.79 1309.13 1027.95C1281.28 1013.54 1258.23 996.732 1239.98 977.522C1221.73 958.313 1207.32 937.662 1196.75 915.571C1187.15 893.479 1179.95 870.428 1175.14 846.415C1171.3 822.403 1169.38 798.391 1169.38 774.378C1168.42 739.801 1168.9 705.223 1170.82 670.645C1173.7 635.107 1175.14 601.01 1175.14 568.353C1176.1 535.696 1174.66 504.48 1170.82 474.705C1166.98 443.969 1158.81 416.115 1146.33 391.142C1146.33 389.221 1146.33 388.261 1146.33 388.261C1148.25 386.34 1150.17 385.859 1152.09 386.82C1154.01 387.78 1155.45 388.741 1156.41 389.701C1181.39 412.753 1198.19 439.647 1206.84 470.383C1215.48 501.118 1220.29 533.775 1221.25 568.353C1222.21 602.931 1220.77 638.469 1216.92 674.967C1213.08 711.466 1211.64 747.485 1212.6 783.023C1213.56 804.154 1215.96 825.765 1219.81 847.856C1223.65 869.947 1229.89 891.558 1238.54 912.689C1247.18 932.86 1258.23 952.55 1271.67 971.759C1286.08 990.969 1302.89 1008.26 1322.1 1023.63C1318.26 1014.02 1315.37 1007.3 1313.45 1003.46C1311.53 998.653 1306.73 990.009 1299.05 977.522Z" fill="black"/>
<path d="M2048.14 463.179C2055.82 472.784 2061.59 484.79 2065.43 499.198C2070.23 513.605 2072.15 529.453 2071.19 546.742C2070.23 563.07 2066.39 580.359 2059.67 598.608C2052.94 616.858 2042.38 634.627 2027.97 651.916C2000.12 684.572 1969.38 710.025 1935.76 728.275C1903.11 745.564 1873.33 754.208 1846.44 754.208C1830.11 754.208 1830.11 751.327 1846.44 745.564C1855.08 742.682 1865.17 738.36 1876.69 732.597C1889.18 725.874 1902.15 718.19 1915.59 709.545C1929.04 699.94 1942.49 688.895 1955.93 676.408C1970.34 663.922 1983.31 649.514 1994.83 633.186C2014.04 606.292 2025.09 580.359 2027.97 555.386C2031.81 529.453 2027.01 509.763 2013.56 496.316C2002.04 484.79 1988.59 478.547 1973.22 477.586C1957.85 475.665 1934.8 483.83 1904.07 502.079C1876.21 518.407 1851.24 538.578 1829.15 562.59C1807.06 586.602 1786.41 612.055 1767.2 638.949C1756.63 652.396 1749.43 659.119 1745.58 659.119C1742.7 659.119 1744.14 650.475 1749.91 633.186C1761.43 599.569 1777.28 568.353 1797.45 539.538C1818.58 510.723 1843.55 486.231 1872.37 466.061C1893.5 451.653 1912.71 441.568 1930 435.805C1948.25 430.042 1964.58 427.641 1978.98 428.601C1994.35 429.562 2007.8 433.404 2019.32 440.127C2030.85 445.89 2040.46 453.574 2048.14 463.179ZM2125.94 564.031C2122.1 587.082 2115.85 606.773 2107.21 623.101C2099.53 638.469 2090.4 651.916 2079.84 663.442C2070.23 674.007 2060.15 682.651 2049.58 689.375C2039.98 696.098 2031.33 702.341 2023.65 708.104C2019.81 710.986 2016.92 711.466 2015 709.545C2013.08 707.624 2014.52 704.263 2019.32 699.46C2036.61 685.053 2053.9 665.843 2071.19 641.831C2089.44 616.858 2099.05 589.484 2100.01 559.708C2100.01 508.802 2087.52 469.902 2062.55 443.009C2037.57 416.115 2006.36 404.589 1968.9 408.431C1931.44 411.313 1892.54 425.72 1852.2 451.653C1826.27 467.982 1803.21 487.191 1783.04 509.283C1763.83 530.414 1747.03 553.465 1732.62 578.438C1718.21 602.45 1706.2 627.423 1696.6 653.356C1687.96 679.29 1681.71 705.223 1677.87 731.156C1674.03 756.129 1670.19 783.023 1666.34 811.838C1663.46 840.652 1663.46 868.987 1666.34 896.841C1670.19 924.695 1679.31 951.589 1693.72 977.522C1708.13 1002.5 1730.7 1024.11 1761.43 1042.36C1766.24 1045.24 1771.04 1047.16 1775.84 1048.12C1781.6 1049.08 1784.48 1050.04 1784.48 1051C1784.48 1052.92 1782.08 1053.88 1777.28 1053.88C1772.48 1054.84 1767.2 1054.36 1761.43 1052.44C1737.42 1047.64 1716.77 1038.03 1699.48 1023.63C1683.15 1008.26 1669.71 990.969 1659.14 971.759C1648.58 952.55 1640.41 932.379 1634.65 911.248C1628.89 890.118 1625.52 870.908 1624.56 853.619C1618.8 777.74 1629.37 702.822 1656.26 628.864C1662.02 613.496 1669.23 596.207 1677.87 576.997C1687.48 557.788 1699 538.578 1712.45 519.368C1725.89 499.198 1741.74 479.988 1759.99 461.738C1778.24 442.528 1798.89 425.72 1821.94 411.312C1844.04 397.866 1867.09 387.78 1891.1 381.057C1915.11 374.334 1939.12 371.452 1963.14 372.413C1987.15 372.413 2009.72 376.735 2030.85 385.379C2051.98 393.063 2070.71 405.069 2087.04 421.398C2101.45 436.766 2112.49 456.456 2120.18 480.468C2128.82 504.48 2130.74 532.334 2125.94 564.031ZM1994.83 512.164C2006.36 525.611 2007.8 546.742 1999.15 575.557C1990.51 603.411 1970.34 631.745 1938.64 660.56C1921.35 676.888 1904.55 690.335 1888.22 700.901C1871.89 710.506 1851.24 719.15 1826.27 726.834C1815.7 763.333 1808.98 799.351 1806.1 834.889C1803.21 870.428 1804.17 899.242 1808.98 921.334C1809.94 929.978 1812.82 938.622 1817.62 947.267C1823.38 954.951 1831.07 961.194 1840.67 965.996C1851.24 969.838 1864.69 971.279 1881.01 970.319C1897.34 969.358 1917.51 964.076 1941.53 954.471C1948.25 951.589 1952.09 951.109 1953.05 953.03C1954.97 953.99 1952.09 956.872 1944.41 961.674C1927.12 975.121 1908.87 984.726 1889.66 990.489C1870.45 995.292 1852.2 996.732 1834.91 994.811C1818.58 992.89 1804.17 987.127 1791.69 977.522C1780.16 967.917 1772.48 954.951 1768.64 938.622C1760.95 905.005 1757.59 869.947 1758.55 833.449C1759.51 796.95 1764.79 760.932 1774.4 725.393C1784.96 689.855 1799.37 656.718 1817.62 625.982C1836.83 594.286 1860.36 567.392 1888.22 545.301C1940.08 504 1975.62 492.954 1994.83 512.164ZM1980.43 971.759C1973.7 981.364 1965.06 990.969 1954.49 1000.57C1944.89 1009.22 1933.36 1017.38 1919.91 1025.07C1907.43 1031.79 1893.98 1037.55 1879.57 1042.36C1866.13 1047.16 1852.2 1049.56 1837.79 1049.56C1812.82 1049.56 1789.29 1044.28 1767.2 1033.71C1746.07 1022.19 1729.74 999.614 1718.21 965.996C1716.29 962.155 1715.33 958.793 1715.33 955.911C1715.33 952.069 1716.29 950.148 1718.21 950.148C1722.05 948.227 1725.89 949.668 1729.74 954.471C1733.58 958.313 1737.42 962.635 1741.26 967.437C1751.83 979.924 1765.27 990.969 1781.6 1000.57C1798.89 1010.18 1815.22 1014.98 1830.59 1014.98C1859.4 1014.98 1884.38 1010.66 1905.51 1002.01C1926.64 993.37 1946.81 981.845 1966.02 967.437C1970.82 964.556 1976.1 961.674 1981.87 958.793C1988.59 955.911 1988.11 960.234 1980.43 971.759ZM1960.25 551.064C1956.41 543.38 1942.49 549.623 1918.47 569.794C1896.38 587.083 1878.61 607.253 1865.17 630.305C1852.68 652.396 1841.63 676.888 1832.03 703.782C1850.28 695.138 1867.09 685.533 1882.45 674.967C1897.82 663.442 1912.23 652.396 1925.68 641.831C1940.08 629.344 1950.65 613.016 1957.37 592.845C1964.1 572.675 1965.06 558.748 1960.25 551.064Z" fill="black"/>
</svg>
